# xmcd
#
# Track frame offsets: 
#        150
#        14696
#        26573
#        40151
#        52757
#        64928
#        79043
#        89855
#        109945
#        136869
#        149659
#        160220
#        171741
#        194041
#        210319
#        223587
#        243501
#        263623
#        282212
#        305793
#
# Disc length: 4225 seconds
#
# Revision: 0
# Processed by: cddbd v1.5.2PL0 Copyright (c) Steve Scherf et al.
# Submitted via: ExactAudioCopy v1.0b4
#
DISCID=34107f14
DTITLE=Various Artist - The Songs Of Willie Dixon [CD2 - 1963-2006)
DYEAR=2012
DGENRE=Blues
TTITLE0=Sonny Boy Williamson - Help Me
TTITLE1=Sonny Boy Williamson - Bring It On Home
TTITLE2=Sam Cooke - Little Red Rooster
TTITLE3=Little Walter - Dead Presidents
TTITLE4=Howlin Wolf - Built For Comfort
TTITLE5=Howlin Wolf - 300 Pounds Of Joy
TTITLE6=Howlin Wolf - Hidden Charms
TTITLE7=Willie Dixon - Weak Brain, Narrow Mind
TTITLE8=Muddy Waters - The Same Thing
TTITLE9=Johnny Rivers - Seventh Son
TTITLE10=Roy Head and The Traits - My Babe
TTITLE11=The Remains - Diddy Wah Diddy
TTITLE12=Koko Taylor - Wang Dang Doodle
TTITLE13=The Doors - Back Door Man
TTITLE14=Howlin Wolf - Evil
TTITLE15=Foghat - I Just Want To Make Love To You
TTITLE16=Willie Dixon - It Don't Make Sense (You Can't Make Peace)
TTITLE17=Stevie Ray Vaughan and Double Trouble - Shake For Me
TTITLE18=George Thorogood - Howlin' For My Baby
TTITLE19=Gnarls Barkley - Gone Daddy Gone
EXTD=
EXTT0=
EXTT1=
EXTT2=
EXTT3=
EXTT4=
EXTT5=
EXTT6=
EXTT7=
EXTT8=
EXTT9=
EXTT10=
EXTT11=
EXTT12=
EXTT13=
EXTT14=
EXTT15=
EXTT16=
EXTT17=
EXTT18=
EXTT19=
PLAYORDER=
